<svg width="38" height="38" viewBox="0 0 38 38" fill="none" xmlns="http://www.w3.org/2000/svg">
<path fill-rule="evenodd" clip-rule="evenodd" d="M19 38C29.4934 38 38 29.4934 38 19C38 8.50659 29.4934 0 19 0C8.50659 0 0 8.50659 0 19C0 29.4934 8.50659 38 19 38ZM28.715 26.955V19.76V19.735C28.715 15.88 26.655 14.09 23.91 14.09C23.1541 14.0596 22.4043 14.2363 21.7416 14.6012C21.0789 14.966 20.5285 15.505 20.15 16.16V14.385H15.975C16.035 15.56 15.975 26.93 15.975 26.93H20.15V19.93C20.137 19.591 20.1844 19.2524 20.29 18.93C20.4451 18.4857 20.7343 18.1004 21.1176 17.8273C21.5008 17.5542 21.9594 17.4066 22.43 17.405C23.94 17.405 24.54 18.555 24.54 20.245V26.955H28.715ZM20.15 16.16V16.2H20.12L20.15 16.16ZM13.67 26.955H9.5V14.41H12.7062H13.67V26.955ZM13.5313 11.1816C13.7038 10.8662 13.795 10.5116 13.795 10.15C13.7956 9.86748 13.7405 9.58761 13.6327 9.32646C13.5249 9.06531 13.3665 8.82803 13.1667 8.62825C12.967 8.42847 12.7297 8.27014 12.4685 8.16232C12.2074 8.05451 11.9275 7.99934 11.645 8C11.2198 8 10.8041 8.12611 10.4505 8.36235C10.0969 8.5986 9.82139 8.93438 9.65866 9.32724C9.49593 9.7201 9.45336 10.1524 9.53632 10.5694C9.61928 10.9865 9.82404 11.3696 10.1247 11.6703C10.4254 11.971 10.8085 12.1757 11.2256 12.2587C11.6426 12.3417 12.0749 12.2991 12.4678 12.1364C12.8606 11.9736 13.1964 11.698 13.4326 11.3445C13.468 11.2915 13.5009 11.2372 13.5313 11.1816Z" fill="white"/>
</svg>
