<svg width="34" height="28" viewBox="0 0 34 28" fill="none" xmlns="http://www.w3.org/2000/svg">
<g clip-path="url(#clip0_19_779)">
<path d="M33.8578 3.3533C32.7579 3.82665 31.6017 4.15627 30.4175 4.334C30.9711 4.23909 31.7857 3.23467 32.11 2.83132C32.6195 2.21748 33.0062 1.5113 33.2488 0.751307C33.2488 0.695946 33.3042 0.616856 33.2488 0.577312C33.2205 0.563361 33.1894 0.556097 33.1579 0.556097C33.1263 0.556097 33.0952 0.563361 33.0669 0.577312C31.7811 1.27362 30.4126 1.80507 28.9939 2.15908C28.9437 2.17321 28.8907 2.1733 28.8405 2.15935C28.7903 2.14541 28.7449 2.11796 28.7092 2.07998C28.6007 1.94919 28.4817 1.82752 28.3533 1.71618C27.7641 1.21242 27.0996 0.804107 26.384 0.506124C25.4238 0.118116 24.3881 -0.0468306 23.3549 0.0236976C22.3506 0.08344 21.37 0.35285 20.4761 0.814579C19.5833 1.28406 18.795 1.92978 18.1588 2.71269C17.4976 3.52114 17.0248 4.46674 16.7748 5.48078C16.5617 6.44237 16.5375 7.43622 16.7036 8.40703C16.7036 8.57312 16.7036 8.59685 16.5613 8.57312C10.9618 7.78224 6.31932 5.73386 2.55472 1.45519C2.38864 1.27329 2.30165 1.27329 2.1672 1.45519C0.522165 3.93065 1.32098 7.90088 3.37727 9.84644C3.65408 10.1074 3.93877 10.3684 4.2393 10.6373C3.294 10.5566 2.37439 10.2877 1.5345 9.84644C1.37633 9.74363 1.28932 9.80689 1.2735 9.9888C1.26724 10.2533 1.28311 10.5178 1.32095 10.7797C1.48676 12.0405 1.98408 13.2349 2.76215 14.2408C3.54021 15.2467 4.5712 16.0283 5.74992 16.5057C6.03633 16.6298 6.33627 16.72 6.64362 16.7746C5.77139 16.9502 4.876 16.9796 3.99413 16.8616C3.80432 16.8616 3.72524 16.9169 3.80433 17.1067C4.96693 20.2703 7.48984 21.2272 9.3405 21.7729C9.59358 21.8125 9.84666 21.8125 10.1314 21.8757C10.1314 21.8757 10.1314 21.8757 10.0839 21.9153C9.45913 22.8723 7.29212 23.5841 6.27979 23.932C4.43109 24.5918 2.46191 24.8454 0.506367 24.6755C0.197923 24.628 0.12673 24.628 0.0476417 24.6755C-0.0314464 24.7229 0.0476301 24.802 0.134627 24.8811C0.530068 25.1421 0.925524 25.3714 1.33678 25.5929C2.56115 26.2506 3.85585 26.7679 5.19629 27.1351C12.1402 29.057 19.9541 27.6492 25.166 22.4689C29.2628 18.4038 30.7022 12.7964 30.7022 7.18117C30.7022 6.95972 30.9632 6.84108 31.1134 6.72245C32.1524 5.91821 33.0689 4.96711 33.8341 3.89901C33.9521 3.74456 34.016 3.55558 34.016 3.36121C34.0002 3.2663 33.9923 3.29003 33.8578 3.3533Z" fill="white"/>
</g>
<defs>
<clipPath id="clip0_19_779">
<rect width="34" height="27.9814" fill="white"/>
</clipPath>
</defs>
</svg>
