<svg width="500" height="121" viewBox="0 0 500 121" fill="none" xmlns="http://www.w3.org/2000/svg">
<g clip-path="url(#clip0_57_4287)">
<path d="M147.915 102.391C166.105 102.391 179.012 90.3769 179.012 73.537C179.012 56.7991 166.105 44.8877 147.915 44.8877C129.927 44.8877 116.817 56.7991 116.817 73.537C116.817 90.3769 129.927 102.391 147.915 102.391ZM147.915 86.8857C141.41 86.8857 136.329 82.0597 136.329 73.537C136.329 65.1168 141.41 60.3933 147.915 60.3933C154.52 60.3933 159.5 65.1168 159.5 73.537C159.5 82.0597 154.52 86.8857 147.915 86.8857Z" fill="white"/>
<path d="M221.186 85.5493C219.561 86.679 217.426 87.2951 215.292 87.2951C211.837 87.2951 209.499 85.0357 209.499 80.9284V62.4451H222.101V47.8642H209.499V33.3857H190.191V47.8642H182.162V62.4451H190.191V81.1339C190.191 95.4068 198.423 102.39 212.548 102.39C217.63 102.39 222.609 101.362 225.963 99.2065L221.186 85.5493V85.5493Z" fill="white"/>
<path d="M232.398 101.466H266.036C289.613 101.466 305.771 87.6041 305.771 65.5267C305.771 43.4497 289.613 29.5869 266.036 29.5869H232.398V101.466ZM252.519 85.2421V45.8112H265.223C277.316 45.8112 285.446 53.1017 285.446 65.5267C285.446 77.9517 277.316 85.2421 265.223 85.2421H252.519Z" fill="white"/>
<path d="M330.522 52.4862V45.8119H312.128V101.467H331.436V75.8985C331.436 66.1435 336.822 62.1387 344.648 62.1387C346.071 62.1387 347.29 62.2417 349.018 62.4467V44.8877C340.888 44.8877 334.485 47.4547 330.522 52.4862V52.4862Z" fill="white"/>
<path d="M384.078 102.391C402.27 102.391 415.176 90.3769 415.176 73.537C415.176 56.7991 402.27 44.8877 384.078 44.8877C366.091 44.8877 352.981 56.7991 352.981 73.537C352.981 90.3769 366.091 102.391 384.078 102.391ZM384.078 86.8857C377.574 86.8857 372.493 82.0597 372.493 73.537C372.493 65.1168 377.574 60.3933 384.078 60.3933C390.684 60.3933 395.664 65.1168 395.664 73.537C395.664 82.0597 390.684 86.8857 384.078 86.8857Z" fill="white"/>
<path d="M456.317 44.8877C449.101 44.8877 443.715 46.9416 440.056 51.357V45.8119H421.662V121.388H440.971V96.5381C444.731 100.44 449.914 102.391 456.317 102.391C471.256 102.391 483.349 91.3011 483.349 73.6395C483.349 55.9779 471.256 44.8877 456.317 44.8877ZM452.252 86.8857C445.748 86.8857 440.666 82.0597 440.666 73.6395C440.666 65.2193 445.748 60.3933 452.252 60.3933C458.756 60.3933 463.837 65.2193 463.837 73.6395C463.837 82.0597 458.756 86.8857 452.252 86.8857Z" fill="white"/>
<path fill-rule="evenodd" clip-rule="evenodd" d="M14 15.7404C14 7.28776 20.8522 0.435547 29.3049 0.435547C37.7575 0.435547 44.6098 7.28778 44.6098 15.7404V21.9908C34.4438 27.8714 27.6042 38.8628 27.6042 51.4516C27.6042 64.0405 34.4438 75.0319 44.6098 80.9125V87.1633C44.6098 95.6159 37.7575 102.468 29.3049 102.468C20.8522 102.468 14 95.6159 14 87.1633V15.7404ZM78.6205 80.9125V87.1633C78.6205 95.6159 85.4727 102.468 93.9254 102.468C102.378 102.468 109.23 95.6159 109.23 87.1633V15.7404C109.23 7.28778 102.378 0.435547 93.9254 0.435547C85.4727 0.435547 78.6205 7.28776 78.6205 15.7404V21.9908C88.7864 27.8714 95.626 38.8628 95.626 51.4516C95.626 64.0405 88.7864 75.0319 78.6205 80.9125Z" fill="white"/>
<circle cx="61.6155" cy="51.4492" r="23.8076" fill="#E63963"/>
<path d="M55.9685 44.4469C55.9685 43.3195 57.2156 42.6387 58.1639 43.2483L69.06 50.2529C69.9325 50.8138 69.9325 52.0892 69.06 52.6501L58.1639 59.6548C57.2156 60.2644 55.9685 59.5835 55.9685 58.4562V44.4469Z" fill="white"/>
</g>
<defs>
<clipPath id="clip0_57_4287">
<rect width="500" height="121" fill="white"/>
</clipPath>
</defs>
</svg>
