<svg width="31" height="37" viewBox="0 0 31 37" fill="none" xmlns="http://www.w3.org/2000/svg">
<g clip-path="url(#clip0_36_17644)">
<path d="M30.88 14.5999C30.5835 14.6148 30.2865 14.6148 29.99 14.5999C28.3901 14.5999 26.8154 14.2013 25.4081 13.44C24.0009 12.6788 22.8055 11.579 21.93 10.2399V25.0799C21.93 27.2555 21.2849 29.3822 20.0762 31.1912C18.8675 33.0001 17.1495 34.41 15.1395 35.2426C13.1295 36.0751 10.9178 36.293 8.784 35.8685C6.6502 35.4441 4.69023 34.3964 3.15185 32.8581C1.61348 31.3197 0.565794 29.3597 0.141356 27.2259C-0.283081 25.0921 -0.0652313 22.8803 0.767333 20.8704C1.5999 18.8604 3.00978 17.1424 4.81872 15.9337C6.62766 14.725 8.7544 14.0799 10.93 14.0799C11.16 14.0799 11.38 14.0799 11.6 14.0799V19.4799C11.3786 19.4412 11.1547 19.4178 10.93 19.4099C10.1753 19.378 9.42203 19.499 8.71539 19.7658C8.00876 20.0326 7.36343 20.4396 6.81817 20.9623C6.27292 21.485 5.83901 22.1126 5.5426 22.8073C5.2462 23.502 5.09344 24.2496 5.09344 25.0049C5.09344 25.7602 5.2462 26.5077 5.5426 27.2025C5.83901 27.8972 6.27292 28.5248 6.81817 29.0475C7.36343 29.5701 8.00876 29.9771 8.71539 30.2439C9.42203 30.5107 10.1753 30.6318 10.93 30.5999C12.4295 30.6244 13.8789 30.0601 14.967 29.0281C16.0551 27.9961 16.6952 26.5786 16.75 25.0799V-0.120117H21.92C22.1554 2.12591 23.1728 4.21775 24.7941 5.78976C26.4155 7.36178 28.5377 8.31397 30.79 8.47989V14.4799" fill="white"/>
</g>
<defs>
<clipPath id="clip0_36_17644">
<rect width="30.88" height="36.09" fill="white"/>
</clipPath>
</defs>
</svg>
