<svg width="36" height="36" viewBox="0 0 36 36" fill="none" xmlns="http://www.w3.org/2000/svg">
<g clip-path="url(#clip0_19_784)">
<path d="M27.07 6.30959C26.6582 6.30761 26.255 6.42792 25.9117 6.65527C25.5683 6.88261 25.3002 7.20677 25.1412 7.58666C24.9823 7.96656 24.9396 8.38509 25.0187 8.78922C25.0979 9.19336 25.2952 9.56491 25.5857 9.85681C25.8762 10.1487 26.2468 10.3478 26.6505 10.4289C27.0543 10.5099 27.473 10.4693 27.8536 10.3122C28.2343 10.1551 28.5597 9.88848 28.7887 9.54621C29.0177 9.20394 29.14 8.80141 29.14 8.3896C29.1413 8.11692 29.0887 7.84667 28.9853 7.59437C28.8818 7.34207 28.7296 7.11269 28.5373 6.91941C28.3449 6.72613 28.1163 6.57277 27.8645 6.46812C27.6127 6.36347 27.3427 6.30959 27.07 6.30959Z" fill="white"/>
<path d="M17.84 8.98047C16.1145 8.9785 14.4272 9.48849 12.9917 10.4459C11.5562 11.4033 10.437 12.7651 9.77572 14.3589C9.11448 15.9526 8.94098 17.7068 9.27712 19.3992C9.61327 21.0917 10.444 22.6463 11.6641 23.8664C12.8842 25.0866 14.4389 25.9173 16.1313 26.2534C17.8238 26.5896 19.5779 26.416 21.1717 25.7548C22.7654 25.0935 24.1272 23.9743 25.0846 22.5388C26.042 21.1033 26.552 19.416 26.55 17.6905C26.5447 15.3821 25.6254 13.1697 23.9931 11.5374C22.3608 9.90511 20.1485 8.98576 17.84 8.98047ZM17.84 23.2805C16.734 23.2825 15.6522 22.9563 14.7317 22.3433C13.8111 21.7302 13.093 20.8579 12.6684 19.8366C12.2438 18.8154 12.1317 17.6911 12.3462 16.6061C12.5608 15.5211 13.0924 14.5241 13.8737 13.7413C14.6551 12.9585 15.6512 12.4251 16.7358 12.2086C17.8204 11.9921 18.9449 12.1022 19.9669 12.525C20.989 12.9478 21.8626 13.6643 22.4773 14.5838C23.0919 15.5033 23.42 16.5845 23.42 17.6905C23.424 18.4263 23.2826 19.1556 23.0041 19.8366C22.7256 20.5176 22.3154 21.1369 21.797 21.6591C21.2785 22.1812 20.6621 22.5958 19.9831 22.8792C19.3041 23.1626 18.5758 23.3092 17.84 23.3105V23.2805Z" fill="white"/>
<path d="M24.76 35.39H10.63C7.81157 35.3874 5.10933 34.2666 3.11639 32.2736C1.12346 30.2807 0.00264767 27.5784 0 24.76V10.63C0.00264767 7.81157 1.12346 5.10932 3.11639 3.11638C5.10933 1.12344 7.81157 0.00264767 10.63 0H24.76C27.5767 0.00529333 30.2764 1.12725 32.2672 3.1199C34.2579 5.11256 35.3774 7.8133 35.38 10.63V24.76C35.3774 27.5767 34.2579 30.2774 32.2672 32.2701C30.2764 34.2627 27.5767 35.3847 24.76 35.39ZM10.63 3.31C8.69474 3.31264 6.83951 4.08259 5.47107 5.45103C4.10263 6.81948 3.33266 8.67473 3.33002 10.61V24.74C3.33266 26.6753 4.10263 28.5305 5.47107 29.899C6.83951 31.2674 8.69474 32.0373 10.63 32.04H24.76C26.6945 32.0347 28.5482 31.2639 29.9161 29.896C31.2839 28.5282 32.0547 26.6744 32.06 24.74V10.63C32.0547 8.69555 31.2839 6.84183 29.9161 5.47395C28.5482 4.10608 26.6945 3.33528 24.76 3.33L10.63 3.31Z" fill="white"/>
</g>
<defs>
<clipPath id="clip0_19_784">
<rect width="35.38" height="35.38" fill="white"/>
</clipPath>
</defs>
</svg>
